<svg width="280" height="280" viewBox="0 0 280 280" fill="none" xmlns="http://www.w3.org/2000/svg">
<path d="M1.05191 137.132C-5.04952 136.078 17.2949 165.717 19.3389 168.651C21.8524 172.186 27.8419 172.111 28.8939 167.174C30.5932 158.934 38.8833 122.329 32.3713 128.402C31.6666 129.056 26.1167 136.016 23.9262 139.14C23.3915 129.628 23.2995 120.099 24.4336 110.627C26.4684 93.8239 31.847 77.3242 40.0211 62.715C56.6025 33.1531 86.6719 10.17 118.757 2.88678L117.969 0C82.2771 5.49822 50.9908 25.6203 31.6831 57.8613C17.7379 81.1366 10.284 112.014 14.6986 140.018C8.55 138.989 10.5413 138.772 1.05191 137.132V137.132Z" fill="white"/>
<path d="M217.292 7.05757C221.282 2.12271 185.464 7.00412 182.004 7.33675C177.81 7.7832 174.807 13.1953 178.33 16.6658C184.24 22.407 210.112 48.5765 208.448 39.6262C208.27 38.6587 205.384 30.1175 203.935 26.554C212.034 30.9416 219.921 35.735 227.133 41.6C239.915 52.0239 250.737 65.293 258.573 80.103C274.408 110.108 277.928 148.848 267.502 181.363L270.28 182.133C284.021 147.296 283.477 108.928 266.833 75.1058C254.821 50.6826 233.233 28.1948 207.935 17.8252C211.927 12.8346 211.087 14.7323 217.292 7.05757V7.05757Z" fill="white"/>
<path d="M239.82 249.669C243.109 255.138 249.542 218.018 250.29 214.475C251.158 210.167 247.134 205.533 242.897 207.984C235.863 212.118 204.127 229.904 212.797 230.969C213.733 231.087 222.402 230.812 226.094 230.454C219.63 237.177 212.86 243.567 205.317 248.96C191.923 258.509 176.529 265.243 160.637 268.537C128.452 275.172 92.041 266.899 65.5482 246.643L64.0013 249.172C91.6054 273.432 126.772 284.553 162.685 278.274C188.616 273.746 215.692 259.103 232.841 237.086C236.179 242.575 234.704 241.162 239.819 249.669H239.82Z" fill="white"/>
</svg>
