<svg width="152" height="208" viewBox="0 0 152 208" fill="none" xmlns="http://www.w3.org/2000/svg">
<path fill-rule="evenodd" clip-rule="evenodd" d="M123.023 150H29.2249C28.7349 136.87 23.381 115.528 33.2834 109.303C39.1984 105.586 45.1753 102.26 52.1826 99.6413C56.5744 105.03 60.3813 115.562 61.9055 124.091C62.7617 128.879 63.5855 133.614 64.4524 138.465C65.4909 144.271 64.4954 149.033 69.9843 148.707L68.4305 116.022C73.0714 114.403 72.4063 113.446 73.0134 112.413C68.5524 108.323 66.1188 102.873 69.9698 100.534C71.7213 99.4704 74.1448 101.352 76.2679 101.371C80.2872 101.408 78.8079 99.4975 82.4601 100.549C85.3499 107.761 82.285 109.455 78.8911 112.775C80.8004 115.063 80.5353 114.824 83.4387 115.88L81.6285 148.946C86.7575 148.546 85.6067 148.617 87.4778 137.92C89.8238 124.5 92.227 110.649 99.6421 99.4906C133.224 113.959 123.014 117.416 123.023 150H123.023Z" fill="#5787E6"/>
<path fill-rule="evenodd" clip-rule="evenodd" d="M25.9122 27.7324C29.1576 32.125 35.0658 33.6275 39.4145 36.7283C39.4174 42.0836 39.4653 47.4607 39.4576 52.8102C39.446 61.251 36.503 57.2723 36.6176 66.3897C37.9604 66.8939 37.4989 66.5229 38.0223 66.5012C38.0596 66.4991 38.2821 66.4672 38.314 66.464L38.6425 66.3897C38.8481 70.6884 38.5201 76.1944 40.5281 79.1462C47.9383 60.2002 40.8164 64.4229 40.962 50.0229C41.0026 46.0034 40.9905 41.9828 40.9702 37.9633C44.572 39.3649 45.836 40.8975 49.1147 42.0959L49.0097 31.7047C63.6507 23.3451 78.9307 21.0398 95.4171 28.9674C104.374 33.274 102.823 33.5017 103.089 41.6209C105.8 41.252 124.229 30.3583 125.912 28.2679C120.568 24.8953 78.2138 0.0723334 76.2204 0.000688799C72.0323 -0.153214 34.2604 25.5327 25.9122 27.7324V27.7324Z" fill="#5787E6"/>
<path fill-rule="evenodd" clip-rule="evenodd" d="M50.6713 57.4527C49.4987 73.3132 55.8984 86.1822 64.4889 92.0299C80.123 102.673 99.2699 88.4026 100.975 64.2595C101.435 57.7377 100.189 55.9524 88.5137 52.8499C75.9557 49.5134 60.9592 51.2201 50.6713 57.4527V57.4527Z" fill="#5787E6"/>
<path fill-rule="evenodd" clip-rule="evenodd" d="M51.3142 35.4505L51.1062 52.71C63.9022 48.0467 73.0365 43.3309 89.7009 48.9271C95.1723 50.7649 96.6651 52.5884 100.417 54.5329C101.192 39.944 104.134 33.773 83.9242 29.7014C74.1442 27.7325 58.4869 29.3268 51.3142 35.4505V35.4505Z" fill="#5787E6"/>
<path d="M2.05 162H17.05V167H7.55V176.25H15.1V181.25H7.55V192H17.05V197H2.05V162ZM28.0141 197.5C25.3474 197.5 23.3141 196.75 21.9141 195.25C20.5141 193.717 19.8141 191.533 19.8141 188.7V170.3C19.8141 167.467 20.5141 165.3 21.9141 163.8C23.3141 162.267 25.3474 161.5 28.0141 161.5C30.6807 161.5 32.7141 162.267 34.1141 163.8C35.5141 165.3 36.2141 167.467 36.2141 170.3V173.3H31.0141V169.95C31.0141 167.65 30.0641 166.5 28.1641 166.5C26.2641 166.5 25.3141 167.65 25.3141 169.95V189.1C25.3141 191.367 26.2641 192.5 28.1641 192.5C30.0641 192.5 31.0141 191.367 31.0141 189.1V182.25H28.2641V177.25H36.2141V188.7C36.2141 191.533 35.5141 193.717 34.1141 195.25C32.7141 196.75 30.6807 197.5 28.0141 197.5ZM39.7453 162H47.8953C50.7286 162 52.7953 162.667 54.0953 164C55.3953 165.3 56.0453 167.317 56.0453 170.05V172.2C56.0453 175.833 54.8453 178.133 52.4453 179.1V179.2C53.7786 179.6 54.712 180.417 55.2453 181.65C55.812 182.883 56.0953 184.533 56.0953 186.6V192.75C56.0953 193.75 56.1286 194.567 56.1953 195.2C56.262 195.8 56.4286 196.4 56.6953 197H51.0953C50.8953 196.433 50.762 195.9 50.6953 195.4C50.6286 194.9 50.5953 194 50.5953 192.7V186.3C50.5953 184.7 50.3286 183.583 49.7953 182.95C49.2953 182.317 48.412 182 47.1453 182H45.2453V197H39.7453V162ZM47.2453 177C48.3453 177 49.162 176.717 49.6953 176.15C50.262 175.583 50.5453 174.633 50.5453 173.3V170.6C50.5453 169.333 50.312 168.417 49.8453 167.85C49.412 167.283 48.712 167 47.7453 167H45.2453V177H47.2453ZM59.9113 162H74.9113V167H65.4113V176.25H72.9613V181.25H65.4113V192H74.9113V197H59.9113V162ZM85.323 197.5C82.6564 197.5 80.6397 196.75 79.273 195.25C77.9064 193.717 77.223 191.533 77.223 188.7V186.7H82.423V189.1C82.423 191.367 83.373 192.5 85.273 192.5C86.2064 192.5 86.9064 192.233 87.373 191.7C87.873 191.133 88.123 190.233 88.123 189C88.123 187.533 87.7897 186.25 87.123 185.15C86.4564 184.017 85.223 182.667 83.423 181.1C81.1564 179.1 79.573 177.3 78.673 175.7C77.773 174.067 77.323 172.233 77.323 170.2C77.323 167.433 78.023 165.3 79.423 163.8C80.823 162.267 82.8564 161.5 85.523 161.5C88.1564 161.5 90.1397 162.267 91.473 163.8C92.8397 165.3 93.523 167.467 93.523 170.3V171.75H88.323V169.95C88.323 168.75 88.0897 167.883 87.623 167.35C87.1564 166.783 86.473 166.5 85.573 166.5C83.7397 166.5 82.823 167.617 82.823 169.85C82.823 171.117 83.1564 172.3 83.823 173.4C84.523 174.5 85.773 175.833 87.573 177.4C89.873 179.4 91.4564 181.217 92.323 182.85C93.1897 184.483 93.623 186.4 93.623 188.6C93.623 191.467 92.9064 193.667 91.473 195.2C90.073 196.733 88.023 197.5 85.323 197.5ZM103.927 197.5C101.26 197.5 99.2432 196.75 97.8766 195.25C96.5099 193.717 95.8266 191.533 95.8266 188.7V186.7H101.027V189.1C101.027 191.367 101.977 192.5 103.877 192.5C104.81 192.5 105.51 192.233 105.977 191.7C106.477 191.133 106.727 190.233 106.727 189C106.727 187.533 106.393 186.25 105.727 185.15C105.06 184.017 103.827 182.667 102.027 181.1C99.7599 179.1 98.1766 177.3 97.2766 175.7C96.3766 174.067 95.9266 172.233 95.9266 170.2C95.9266 167.433 96.6266 165.3 98.0266 163.8C99.4266 162.267 101.46 161.5 104.127 161.5C106.76 161.5 108.743 162.267 110.077 163.8C111.443 165.3 112.127 167.467 112.127 170.3V171.75H106.927V169.95C106.927 168.75 106.693 167.883 106.227 167.35C105.76 166.783 105.077 166.5 104.177 166.5C102.343 166.5 101.427 167.617 101.427 169.85C101.427 171.117 101.76 172.3 102.427 173.4C103.127 174.5 104.377 175.833 106.177 177.4C108.477 179.4 110.06 181.217 110.927 182.85C111.793 184.483 112.227 186.4 112.227 188.6C112.227 191.467 111.51 193.667 110.077 195.2C108.677 196.733 106.627 197.5 103.927 197.5ZM123.33 197.5C120.63 197.5 118.563 196.733 117.13 195.2C115.697 193.667 114.98 191.5 114.98 188.7V170.3C114.98 167.5 115.697 165.333 117.13 163.8C118.563 162.267 120.63 161.5 123.33 161.5C126.03 161.5 128.097 162.267 129.53 163.8C130.963 165.333 131.68 167.5 131.68 170.3V188.7C131.68 191.5 130.963 193.667 129.53 195.2C128.097 196.733 126.03 197.5 123.33 197.5ZM123.33 192.5C125.23 192.5 126.18 191.35 126.18 189.05V169.95C126.18 167.65 125.23 166.5 123.33 166.5C121.43 166.5 120.48 167.65 120.48 169.95V189.05C120.48 191.35 121.43 192.5 123.33 192.5ZM142.55 197.5C139.883 197.5 137.866 196.75 136.5 195.25C135.133 193.717 134.45 191.533 134.45 188.7V186.7H139.65V189.1C139.65 191.367 140.6 192.5 142.5 192.5C143.433 192.5 144.133 192.233 144.6 191.7C145.1 191.133 145.35 190.233 145.35 189C145.35 187.533 145.016 186.25 144.35 185.15C143.683 184.017 142.45 182.667 140.65 181.1C138.383 179.1 136.8 177.3 135.9 175.7C135 174.067 134.55 172.233 134.55 170.2C134.55 167.433 135.25 165.3 136.65 163.8C138.05 162.267 140.083 161.5 142.75 161.5C145.383 161.5 147.366 162.267 148.7 163.8C150.066 165.3 150.75 167.467 150.75 170.3V171.75H145.55V169.95C145.55 168.75 145.316 167.883 144.85 167.35C144.383 166.783 143.7 166.5 142.8 166.5C140.966 166.5 140.05 167.617 140.05 169.85C140.05 171.117 140.383 172.3 141.05 173.4C141.75 174.5 143 175.833 144.8 177.4C147.1 179.4 148.683 181.217 149.55 182.85C150.416 184.483 150.85 186.4 150.85 188.6C150.85 191.467 150.133 193.667 148.7 195.2C147.3 196.733 145.25 197.5 142.55 197.5Z" fill="#2D2D2D"/>
</svg>
