<svg width="46" height="46" viewBox="0 0 46 46" fill="none" xmlns="http://www.w3.org/2000/svg">
<path d="M40.8889 0H5.11111C2.27444 0 0 2.27444 0 5.11111V15.3333H5.11111V5.11111H40.8889V40.8889H5.11111V30.6667H0V40.8889C0 42.2444 0.53849 43.5445 1.49701 44.503C2.45553 45.4615 3.75556 46 5.11111 46H40.8889C42.2444 46 43.5445 45.4615 44.503 44.503C45.4615 43.5445 46 42.2444 46 40.8889V5.11111C46 2.27444 43.7 0 40.8889 0ZM13.0933 32.1489L21.7222 35.7778L34.5 23L21.7222 10.2222L18.0933 13.8256L24.7122 20.4444H0V25.5556H24.7122L13.0933 32.1489Z" fill="white"/>
</svg>
