<svg width="40" height="29" viewBox="0 0 40 29" fill="none" xmlns="http://www.w3.org/2000/svg">
<path d="M25.4545 18.125C20.6 18.125 10.9091 20.5356 10.9091 25.375V29H40V25.375C40 20.5356 30.3091 18.125 25.4545 18.125ZM9.09091 10.875V5.4375H5.45455V10.875H0V14.5H5.45455V19.9375H9.09091V14.5H14.5455V10.875M25.4545 14.5C27.3834 14.5 29.2332 13.7362 30.5971 12.3765C31.961 11.0169 32.7273 9.17282 32.7273 7.25C32.7273 5.32718 31.961 3.48311 30.5971 2.12348C29.2332 0.763837 27.3834 0 25.4545 0C23.5257 0 21.6759 0.763837 20.312 2.12348C18.948 3.48311 18.1818 5.32718 18.1818 7.25C18.1818 9.17282 18.948 11.0169 20.312 12.3765C21.6759 13.7362 23.5257 14.5 25.4545 14.5Z" fill="white"/>
</svg>
