<svg width="52" height="52" viewBox="0 0 52 52" fill="none" xmlns="http://www.w3.org/2000/svg">
<path fill-rule="evenodd" clip-rule="evenodd" d="M34.7327 32.47H17.3132C17.2222 30.0316 16.2279 26.0681 18.0669 24.9121C19.1654 24.2217 20.2754 23.6041 21.5768 23.1177C22.3924 24.1185 23.0994 26.0744 23.3824 27.6584C23.5414 28.5475 23.6944 29.4269 23.8554 30.3278C24.0483 31.406 23.8634 32.2905 24.8828 32.23L24.5942 26.1599C25.4561 25.8592 25.3326 25.6815 25.4453 25.4895C24.6169 24.73 24.1649 23.7179 24.8801 23.2836C25.2054 23.086 25.6555 23.4355 26.0497 23.439C26.7962 23.4458 26.5215 23.091 27.1997 23.2863C27.7364 24.6257 27.1672 24.9403 26.5369 25.5567C26.8915 25.9817 26.8423 25.9374 27.3815 26.1334L27.0453 32.2743C27.9978 32.2 27.7841 32.2132 28.1316 30.2266C28.5673 27.7344 29.0136 25.162 30.3907 23.0897C36.6273 25.7766 34.7312 26.4187 34.7328 32.47H34.7327Z" fill="white"/>
<path fill-rule="evenodd" clip-rule="evenodd" d="M16.698 9.76323C17.3007 10.579 18.3979 10.858 19.2055 11.4339C19.2061 12.4284 19.215 13.427 19.2135 14.4205C19.2114 15.9881 18.6648 15.2492 18.6861 16.9424C18.9355 17.0361 18.8498 16.9672 18.947 16.9631C18.9539 16.9627 18.9952 16.9568 19.0012 16.9562L19.0622 16.9424C19.1004 17.7408 19.0394 18.7633 19.4123 19.3115C20.7885 15.7929 19.4659 16.5772 19.4929 13.9029C19.5005 13.1564 19.4982 12.4097 19.4945 11.6632C20.1634 11.9235 20.3981 12.2082 21.007 12.4307L20.9875 10.5009C23.7066 8.94844 26.5443 8.5203 29.606 9.99257C31.2694 10.7924 30.9814 10.8347 31.0309 12.3425C31.5343 12.274 34.9569 10.2509 35.2694 9.86267C34.2769 9.23633 26.4111 4.62635 26.0409 4.61304C25.2631 4.58446 18.2484 9.3547 16.698 9.76323V9.76323Z" fill="white"/>
<path fill-rule="evenodd" clip-rule="evenodd" d="M21.2961 15.2827C21.0783 18.2282 22.2668 20.6182 23.8622 21.7042C26.7657 23.6807 30.3215 21.0305 30.6381 16.5468C30.7236 15.3356 30.4922 15.0041 28.324 14.4279C25.9918 13.8083 23.2067 14.1252 21.2961 15.2827V15.2827Z" fill="white"/>
<path fill-rule="evenodd" clip-rule="evenodd" d="M21.4155 11.1966L21.3769 14.4019C23.7533 13.5359 25.4496 12.6601 28.5444 13.6994C29.5606 14.0407 29.8378 14.3793 30.5346 14.7405C30.6785 12.0311 31.2249 10.885 27.4716 10.1289C25.6553 9.76326 22.7476 10.0593 21.4155 11.1966V11.1966Z" fill="white"/>
<path d="M0.195354 25.4674C-0.937768 25.2716 3.21191 30.776 3.59151 31.3209C4.0583 31.9773 5.17063 31.9635 5.366 31.0466C5.6816 29.5163 7.22119 22.7182 6.01182 23.8461C5.88093 23.9676 4.85025 25.2601 4.44343 25.8402C4.34414 24.0739 4.32705 22.3042 4.53767 20.5449C4.91556 17.4244 5.91444 14.3602 7.4325 11.6471C10.5119 6.15701 16.0962 1.88872 22.0549 0.536115L21.9086 0C15.28 1.0211 9.46973 4.75805 5.88401 10.7457C3.29417 15.0682 1.90988 20.8025 2.72973 26.0034C1.58786 25.8122 1.95768 25.772 0.195354 25.4673V25.4674Z" fill="white"/>
<path d="M40.3543 1.31069C41.0952 0.394214 34.4434 1.30076 33.8008 1.36254C33.0219 1.44545 32.4641 2.45055 33.1185 3.09507C34.2159 4.16131 39.0207 9.02134 38.7117 7.35915C38.6787 7.17946 38.1428 5.59326 37.8737 4.93145C39.3777 5.7463 40.8424 6.63649 42.1818 7.72572C44.5557 9.66158 46.5655 12.1258 48.0207 14.8763C50.9615 20.4486 51.6153 27.6432 49.6789 33.6817L50.1948 33.8248C52.7467 27.3549 52.6457 20.2294 49.5547 13.9482C47.3238 9.41248 43.3147 5.23618 38.6164 3.31039C39.3579 2.38356 39.2019 2.736 40.3543 1.31069V1.31069Z" fill="white"/>
<path d="M44.5379 46.3671C45.1487 47.3827 46.3435 40.4891 46.4825 39.8311C46.6436 39.031 45.8963 38.1704 45.1094 38.6256C43.8032 39.3934 37.9092 42.6965 39.5195 42.8943C39.6933 42.9162 41.3032 42.8651 41.9889 42.7986C40.7884 44.0472 39.5311 45.2338 38.1303 46.2355C35.6428 48.0088 32.7839 49.2594 29.8325 49.8713C23.8553 51.1033 17.0933 49.567 12.1732 45.8051L11.886 46.2749C17.0124 50.7803 23.5434 52.8456 30.2129 51.6794C35.0287 50.8386 40.0571 48.1192 43.2419 44.0302C43.8619 45.0497 43.5879 44.7872 44.5379 46.3671H44.5379Z" fill="white"/>
<path d="M12.2547 34.5715H14.9547V35.4715H13.2447V37.1365H14.6037V38.0365H13.2447V39.9715H14.9547V40.8715H12.2547V34.5715ZM16.9282 40.9615C16.4482 40.9615 16.0822 40.8265 15.8302 40.5565C15.5782 40.2805 15.4522 39.8875 15.4522 39.3775V36.0655C15.4522 35.5555 15.5782 35.1655 15.8302 34.8955C16.0822 34.6195 16.4482 34.4815 16.9282 34.4815C17.4082 34.4815 17.7742 34.6195 18.0262 34.8955C18.2782 35.1655 18.4042 35.5555 18.4042 36.0655V36.6055H17.4682V36.0025C17.4682 35.5885 17.2972 35.3815 16.9552 35.3815C16.6132 35.3815 16.4422 35.5885 16.4422 36.0025V39.4495C16.4422 39.8575 16.6132 40.0615 16.9552 40.0615C17.2972 40.0615 17.4682 39.8575 17.4682 39.4495V38.2165H16.9732V37.3165H18.4042V39.3775C18.4042 39.8875 18.2782 40.2805 18.0262 40.5565C17.7742 40.8265 17.4082 40.9615 16.9282 40.9615ZM19.0399 34.5715H20.5069C21.0169 34.5715 21.3889 34.6915 21.6229 34.9315C21.8569 35.1655 21.9739 35.5285 21.9739 36.0205V36.4075C21.9739 37.0615 21.7579 37.4755 21.3259 37.6495V37.6675C21.5659 37.7395 21.7339 37.8865 21.8299 38.1085C21.9319 38.3305 21.9829 38.6275 21.9829 38.9995V40.1065C21.9829 40.2865 21.9889 40.4335 22.0009 40.5475C22.0129 40.6555 22.0429 40.7635 22.0909 40.8715H21.0829C21.0469 40.7695 21.0229 40.6735 21.0109 40.5835C20.9989 40.4935 20.9929 40.3315 20.9929 40.0975V38.9455C20.9929 38.6575 20.9449 38.4565 20.8489 38.3425C20.7589 38.2285 20.5999 38.1715 20.3719 38.1715H20.0299V40.8715H19.0399V34.5715ZM20.3899 37.2715C20.5879 37.2715 20.7349 37.2205 20.8309 37.1185C20.9329 37.0165 20.9839 36.8455 20.9839 36.6055V36.1195C20.9839 35.8915 20.9419 35.7265 20.8579 35.6245C20.7799 35.5225 20.6539 35.4715 20.4799 35.4715H20.0299V37.2715H20.3899ZM22.6698 34.5715H25.3698V35.4715H23.6598V37.1365H25.0188V38.0365H23.6598V39.9715H25.3698V40.8715H22.6698V34.5715ZM27.2439 40.9615C26.7639 40.9615 26.4009 40.8265 26.1549 40.5565C25.9089 40.2805 25.7859 39.8875 25.7859 39.3775V39.0175H26.7219V39.4495C26.7219 39.8575 26.8929 40.0615 27.2349 40.0615C27.4029 40.0615 27.5289 40.0135 27.6129 39.9175C27.7029 39.8155 27.7479 39.6535 27.7479 39.4315C27.7479 39.1675 27.6879 38.9365 27.5679 38.7385C27.4479 38.5345 27.2259 38.2915 26.9019 38.0095C26.4939 37.6495 26.2089 37.3255 26.0469 37.0375C25.8849 36.7435 25.8039 36.4135 25.8039 36.0475C25.8039 35.5495 25.9299 35.1655 26.1819 34.8955C26.4339 34.6195 26.7999 34.4815 27.2799 34.4815C27.7539 34.4815 28.1109 34.6195 28.3509 34.8955C28.5969 35.1655 28.7199 35.5555 28.7199 36.0655V36.3265H27.7839V36.0025C27.7839 35.7865 27.7419 35.6305 27.6579 35.5345C27.5739 35.4325 27.4509 35.3815 27.2889 35.3815C26.9589 35.3815 26.7939 35.5825 26.7939 35.9845C26.7939 36.2125 26.8539 36.4255 26.9739 36.6235C27.0999 36.8215 27.3249 37.0615 27.6489 37.3435C28.0629 37.7035 28.3479 38.0305 28.5039 38.3245C28.6599 38.6185 28.7379 38.9635 28.7379 39.3595C28.7379 39.8755 28.6089 40.2715 28.3509 40.5475C28.0989 40.8235 27.7299 40.9615 27.2439 40.9615ZM30.5925 40.9615C30.1125 40.9615 29.7495 40.8265 29.5035 40.5565C29.2575 40.2805 29.1345 39.8875 29.1345 39.3775V39.0175H30.0705V39.4495C30.0705 39.8575 30.2415 40.0615 30.5835 40.0615C30.7515 40.0615 30.8775 40.0135 30.9615 39.9175C31.0515 39.8155 31.0965 39.6535 31.0965 39.4315C31.0965 39.1675 31.0365 38.9365 30.9165 38.7385C30.7965 38.5345 30.5745 38.2915 30.2505 38.0095C29.8425 37.6495 29.5575 37.3255 29.3955 37.0375C29.2335 36.7435 29.1525 36.4135 29.1525 36.0475C29.1525 35.5495 29.2785 35.1655 29.5305 34.8955C29.7825 34.6195 30.1485 34.4815 30.6285 34.4815C31.1025 34.4815 31.4595 34.6195 31.6995 34.8955C31.9455 35.1655 32.0685 35.5555 32.0685 36.0655V36.3265H31.1325V36.0025C31.1325 35.7865 31.0905 35.6305 31.0065 35.5345C30.9225 35.4325 30.7995 35.3815 30.6375 35.3815C30.3075 35.3815 30.1425 35.5825 30.1425 35.9845C30.1425 36.2125 30.2025 36.4255 30.3225 36.6235C30.4485 36.8215 30.6735 37.0615 30.9975 37.3435C31.4115 37.7035 31.6965 38.0305 31.8525 38.3245C32.0085 38.6185 32.0865 38.9635 32.0865 39.3595C32.0865 39.8755 31.9575 40.2715 31.6995 40.5475C31.4475 40.8235 31.0785 40.9615 30.5925 40.9615ZM34.0851 40.9615C33.5991 40.9615 33.2271 40.8235 32.9691 40.5475C32.7111 40.2715 32.5821 39.8815 32.5821 39.3775V36.0655C32.5821 35.5615 32.7111 35.1715 32.9691 34.8955C33.2271 34.6195 33.5991 34.4815 34.0851 34.4815C34.5711 34.4815 34.9431 34.6195 35.2011 34.8955C35.4591 35.1715 35.5881 35.5615 35.5881 36.0655V39.3775C35.5881 39.8815 35.4591 40.2715 35.2011 40.5475C34.9431 40.8235 34.5711 40.9615 34.0851 40.9615ZM34.0851 40.0615C34.4271 40.0615 34.5981 39.8545 34.5981 39.4405V36.0025C34.5981 35.5885 34.4271 35.3815 34.0851 35.3815C33.7431 35.3815 33.5721 35.5885 33.5721 36.0025V39.4405C33.5721 39.8545 33.7431 40.0615 34.0851 40.0615ZM37.5446 40.9615C37.0646 40.9615 36.7016 40.8265 36.4556 40.5565C36.2096 40.2805 36.0866 39.8875 36.0866 39.3775V39.0175H37.0226V39.4495C37.0226 39.8575 37.1936 40.0615 37.5356 40.0615C37.7036 40.0615 37.8296 40.0135 37.9136 39.9175C38.0036 39.8155 38.0486 39.6535 38.0486 39.4315C38.0486 39.1675 37.9886 38.9365 37.8686 38.7385C37.7486 38.5345 37.5266 38.2915 37.2026 38.0095C36.7946 37.6495 36.5096 37.3255 36.3476 37.0375C36.1856 36.7435 36.1046 36.4135 36.1046 36.0475C36.1046 35.5495 36.2306 35.1655 36.4826 34.8955C36.7346 34.6195 37.1006 34.4815 37.5806 34.4815C38.0546 34.4815 38.4116 34.6195 38.6516 34.8955C38.8976 35.1655 39.0206 35.5555 39.0206 36.0655V36.3265H38.0846V36.0025C38.0846 35.7865 38.0426 35.6305 37.9586 35.5345C37.8746 35.4325 37.7516 35.3815 37.5896 35.3815C37.2596 35.3815 37.0946 35.5825 37.0946 35.9845C37.0946 36.2125 37.1546 36.4255 37.2746 36.6235C37.4006 36.8215 37.6256 37.0615 37.9496 37.3435C38.3636 37.7035 38.6486 38.0305 38.8046 38.3245C38.9606 38.6185 39.0386 38.9635 39.0386 39.3595C39.0386 39.8755 38.9096 40.2715 38.6516 40.5475C38.3996 40.8235 38.0306 40.9615 37.5446 40.9615Z" fill="#2D2D2D"/>
</svg>
